<svg  width="22.039" height="20.439" viewBox="0 0 22.039 20.439">
  <g id="chat" transform="translate(155.415 5.12)">
    <g id="Group_818" data-name="Group 818" transform="translate(-155.215 -4.92)">
      <path id="Path_1259" data-name="Path 1259" d="M209.4,305.807H199.371a.263.263,0,1,0,0,.515H209.4a.263.263,0,1,0,0-.515Z" transform="translate(-189.699 -292.383)" fill="#fff" stroke="#fff" stroke-width="0.4"/>
      <path id="Path_1260" data-name="Path 1260" d="M209.4,305.807H199.371c-.174,0-.316.106-.316.237s.141.237.316.237H209.4c.175,0,.316-.106.316-.237S209.573,305.807,209.4,305.807Z" transform="translate(-189.699 -295.192)" fill="#fff" stroke="#fff" stroke-width="0.4"/>
      <path id="Path_1261" data-name="Path 1261" d="M209.4,305.807H199.371c-.174,0-.316.107-.316.238s.141.238.316.238H209.4c.175,0,.316-.107.316-.238S209.573,305.807,209.4,305.807Z" transform="translate(-189.699 -297.997)" fill="#fff" stroke="#fff" stroke-width="0.4"/>
      <path id="Path_1257" data-name="Path 1257" d="M12.7,0H1.682A1.787,1.787,0,0,0,0,1.873V9.586a1.787,1.787,0,0,0,1.682,1.873H9.4a.258.258,0,0,1,.21.114l2.493,3.515a.481.481,0,0,0,.392.214.465.465,0,0,0,.168-.032A.553.553,0,0,0,13,14.74V11.427a1.839,1.839,0,0,0,1.375-1.841V1.873A1.787,1.787,0,0,0,12.7,0Zm1.1,9.586a1.178,1.178,0,0,1-1.089,1.229.308.308,0,0,0-.286.322V14.5l-2.359-3.326a.813.813,0,0,0-.664-.358H1.682a1.173,1.173,0,0,1-1.1-1.229V1.873A1.173,1.173,0,0,1,1.682.644H12.7a1.173,1.173,0,0,1,1.1,1.229Z" transform="matrix(1, -0.017, 0.017, 1, 6.992, 4.736)" fill="#fff" stroke="#fff" stroke-width="0.4"/>
      <path id="Path_1258" data-name="Path 1258" d="M5.316,39.391a1,1,0,0,0-.622.314L2.215,42.464V39.7a.34.34,0,0,0-.356-.317A1.091,1.091,0,0,1,.722,38.37V31.757a1.09,1.09,0,0,1,1.152-1.013H13.837a1.09,1.09,0,0,1,1.152,1.013v1.224a.364.364,0,0,0,.722,0V31.757a1.773,1.773,0,0,0-1.874-1.647H1.874A1.773,1.773,0,0,0,0,31.757V38.37a1.723,1.723,0,0,0,1.493,1.612v2.807a.525.525,0,0,0,.4.493.679.679,0,0,0,.2.03.618.618,0,0,0,.462-.2L5.26,40.1a.253.253,0,0,1,.157-.08.327.327,0,0,0,.307-.359.356.356,0,0,0-.408-.269Z" transform="translate(0 -30.11)" fill="#fff" stroke="#fff" stroke-width="0.4"/>
    </g>
  </g>
</svg>
