<svg  width="20.616" height="27.059" viewBox="0 0 20.616 27.059">
  <path id="Icon_material-lock-outline" data-name="Icon material-lock-outline" d="M16.308,22.116a2.577,2.577,0,1,0-2.577-2.577A2.585,2.585,0,0,0,16.308,22.116Zm7.731-11.6H22.751V7.943a6.443,6.443,0,1,0-12.885,0V10.52H8.577A2.585,2.585,0,0,0,6,13.1V25.982a2.585,2.585,0,0,0,2.577,2.577H24.039a2.585,2.585,0,0,0,2.577-2.577V13.1A2.585,2.585,0,0,0,24.039,10.52ZM12.314,7.943a3.994,3.994,0,1,1,7.989,0V10.52H12.314ZM24.039,25.982H8.577V13.1H24.039Z" transform="translate(-6 -1.5)" fill="#fff"/>
</svg>
