<svg  width="20.692" height="20.692" viewBox="0 0 20.692 20.692">
  <g id="technology" transform="translate(0.5 0.5)">
    <path id="Path_22" data-name="Path 22" d="M.358,5.251H2.327a.328.328,0,0,0,.328-.328v-2.3h2.3A.328.328,0,0,0,5.281,2.3V.328A.328.328,0,0,0,4.953,0H.358A.328.328,0,0,0,.03.328V4.923a.328.328,0,0,0,.328.328Z" transform="translate(-0.03)" fill="none" stroke="#dfdfdf" stroke-width="1"/>
    <path id="Path_23" data-name="Path 23" d="M4.953,46.626h-2.3v-2.3A.328.328,0,0,0,2.327,44H.358a.328.328,0,0,0-.328.328v4.595a.328.328,0,0,0,.328.328H4.953a.328.328,0,0,0,.328-.328V46.954a.328.328,0,0,0-.328-.328Z" transform="translate(-0.03 -29.559)" fill="none" stroke="#dfdfdf" stroke-width="1"/>
    <path id="Path_24" data-name="Path 24" d="M48.953,0H44.358a.328.328,0,0,0-.328.328V2.3a.328.328,0,0,0,.328.328h2.3v2.3a.328.328,0,0,0,.328.328h1.969a.328.328,0,0,0,.328-.328V.328A.328.328,0,0,0,48.953,0Z" transform="translate(-29.589)" fill="none" stroke="#dfdfdf" stroke-width="1"/>
    <path id="Path_25" data-name="Path 25" d="M48.953,44H46.984a.328.328,0,0,0-.328.328v2.3h-2.3a.328.328,0,0,0-.328.328v1.969a.328.328,0,0,0,.328.328h4.595a.328.328,0,0,0,.328-.328V44.328A.328.328,0,0,0,48.953,44Z" transform="translate(-29.589 -29.559)" fill="none" stroke="#dfdfdf" stroke-width="1"/>
    <path id="Path_26" data-name="Path 26" d="M14.455,18.251V14.328A.328.328,0,0,0,14.127,14h-8.5a.328.328,0,0,0-.328.328v3.923c-.007,2.17-.007-.372,0,.656v3.923a.328.328,0,0,0,.328.328h8.5a.328.328,0,0,0,.328-.328V18.251Z" transform="translate(-0.03 -8.733)" fill="none" stroke="#dfdfdf" stroke-width="1"/>
  </g>
</svg>
