<svg  width="20" height="20" viewBox="0 0 20 20">
  <g id="Head_Menu" data-name="Head Menu" transform="translate(-342.113 -50)">
    <path id="Combined_Shape" data-name="Combined Shape" d="M8.628,20a1.365,1.365,0,0,1-1.363-1.363V17.227c-.152-.059-.305-.124-.454-.191l-.994,1a1.362,1.362,0,0,1-1.926,0L1.967,16.1a1.366,1.366,0,0,1,0-1.927l.994-1c-.072-.155-.136-.308-.191-.455H1.363A1.365,1.365,0,0,1,0,11.363V8.636A1.365,1.365,0,0,1,1.363,7.273H2.77c.059-.153.122-.3.191-.454l-.985-1a1.367,1.367,0,0,1,0-1.928L3.9,1.968a1.362,1.362,0,0,1,1.926,0l.995,1c.147-.069.3-.132.454-.191V1.363A1.365,1.365,0,0,1,8.637,0h2.725a1.365,1.365,0,0,1,1.363,1.363V2.773c.152.059.305.124.454.191l.995-1a1.362,1.362,0,0,1,1.926,0L18.024,3.9a1.366,1.366,0,0,1,0,1.928l-.994,1c.069.147.132.3.191.454h1.417a1.352,1.352,0,0,1,.959.4,1.373,1.373,0,0,1,.4.968v2.727a1.365,1.365,0,0,1-1.363,1.363H17.23c-.059.153-.122.3-.191.455l.976,1a1.366,1.366,0,0,1,0,1.927L16.09,18.031a1.362,1.362,0,0,1-1.926,0l-.995-1c-.146.069-.294.131-.454.191v1.409A1.365,1.365,0,0,1,11.354,20Zm-2.07-4.645a6.271,6.271,0,0,0,2.061.859v2.423h2.725V16.214a6.284,6.284,0,0,0,2.062-.859l1.73,1.714,1.926-1.928L15.35,13.427a6.288,6.288,0,0,0,.859-2.064h2.42V8.636h-2.42a6.282,6.282,0,0,0-.859-2.064l1.713-1.714L15.136,2.932,13.424,4.646a6.294,6.294,0,0,0-2.062-.859V1.363H8.637V3.786a6.271,6.271,0,0,0-2.062.859L4.864,2.932,2.939,4.859,4.65,6.573a6.311,6.311,0,0,0-.859,2.064H1.372v2.727h2.4a6.285,6.285,0,0,0,.859,2.064L2.921,15.141l1.925,1.928,1.711-1.713h0ZM6.367,10A3.633,3.633,0,1,1,10,13.637,3.639,3.639,0,0,1,6.367,10Zm1.363,0A2.271,2.271,0,1,0,10,7.727,2.275,2.275,0,0,0,7.729,10Z" transform="translate(342.113 50)" fill="#534aa2"/>
  </g>
</svg>
