<svg  width="29" height="27" viewBox="0 0 29 27">
  <path id="Combined_Shape" data-name="Combined Shape" d="M1.061,27A1.063,1.063,0,0,1,0,25.935a9.2,9.2,0,0,1,8.028-9.588,1.071,1.071,0,0,1,.213,2.132,6.966,6.966,0,0,0-6.069,6.4H26.829a6.908,6.908,0,0,0-6.069-6.4,1.071,1.071,0,0,1,.213-2.132A9.2,9.2,0,0,1,29,25.935,1.063,1.063,0,0,1,27.94,27ZM7.427,8.528C7.427,3.825,10.6,0,14.5,0s7.073,3.825,7.073,8.528S18.4,17.057,14.5,17.057,7.427,13.231,7.427,8.528ZM11,4a7.4,7.4,0,0,0-1.449,4.53A7.4,7.4,0,0,0,11,13.059a4.438,4.438,0,0,0,3.5,1.866A4.435,4.435,0,0,0,18,13.059a7.4,7.4,0,0,0,1.45-4.531A7.4,7.4,0,0,0,18,4a4.435,4.435,0,0,0-3.5-1.866A4.438,4.438,0,0,0,11,4Z" fill="#fff"/>
</svg>
