<svg xmlns="http://www.w3.org/2000/svg" width="19.5" height="22.286" viewBox="0 0 19.5 22.286">
  <path id="Icon_metro-file-picture" data-name="Icon metro-file-picture" d="M21.213,21.428H7.284V18.642l4.179-6.964,5.724,6.964,4.026-2.786Zm0-9.054a2.089,2.089,0,1,1-2.089-2.089A2.089,2.089,0,0,1,21.213,12.374ZM23.08,6.914a19.734,19.734,0,0,0-1.9-2.17,19.739,19.739,0,0,0-2.17-1.9,3.471,3.471,0,0,0-1.979-.918H6.24A1.743,1.743,0,0,0,4.5,3.669v18.8A1.743,1.743,0,0,0,6.24,24.214H22.258A1.743,1.743,0,0,0,24,22.473V8.892a3.471,3.471,0,0,0-.918-1.979ZM20.2,5.728A19,19,0,0,1,21.778,7.5H18.427V4.149A18.977,18.977,0,0,1,20.2,5.728Zm2.408,16.744a.353.353,0,0,1-.348.348H6.24a.353.353,0,0,1-.348-.348V3.669a.353.353,0,0,1,.348-.348H17.034V8.2a.7.7,0,0,0,.7.7h4.875Z" transform="translate(-4.499 -1.928)" />
</svg>
