<svg xmlns="http://www.w3.org/2000/svg" width="18.904" height="21.523" viewBox="0 0 18.904 21.523">
  <g id="glocke" transform="translate(-54.776)">
    <g id="Group_972" data-name="Group 972" transform="translate(54.776)">
      <g id="Group_971" data-name="Group 971">
        <path id="Path_1359" data-name="Path 1359" d="M94.337,17.984l-1.6-2.146a5.474,5.474,0,0,1-.865-2.926V7.987c0-2.55-2.187-4.7-5.135-5.3a1.471,1.471,0,0,0,.42-1.008,2.147,2.147,0,0,0-4.192,0,1.471,1.471,0,0,0,.42,1.008c-2.948.6-5.135,2.748-5.135,5.3v4.924a5.474,5.474,0,0,1-.865,2.926l-1.6,2.146c-.474.633.093,1.438,1.015,1.438h5.167a3.336,3.336,0,0,0,6.2,0h5.167C94.243,19.421,94.812,18.617,94.337,17.984ZM85.056.841a.963.963,0,0,1,1.048.841,1.073,1.073,0,0,1-2.1,0A.963.963,0,0,1,85.056.841ZM79.293,12.911V7.987c0-2.55,2.585-4.624,5.763-4.624S90.82,5.437,90.82,7.987v4.924a6.392,6.392,0,0,0,.868,3.147H78.424A6.392,6.392,0,0,0,79.293,12.911Zm5.763,7.771a2.073,2.073,0,0,1-2.029-1.265h4.059A2.073,2.073,0,0,1,85.056,20.683Zm8.266-2.1H76.79c-.106,0-.171-.091-.116-.165L77.808,16.9H92.3l1.135,1.517C93.493,18.489,93.429,18.581,93.323,18.581Z" transform="translate(-75.604)" fill="#534aa2"/>
      </g>
    </g>
    <g id="Group_974" data-name="Group 974" transform="translate(63.442 4.332)">
      <g id="Group_973" data-name="Group 973">
        <path id="Path_1360" data-name="Path 1360" d="M286.254,110.107a1.291,1.291,0,0,0-1.4.278c-.276.346-.1.782.4.974,2.291.887,3.715,2.568,3.715,4.387,0,.4.46.716,1.028.716s1.028-.321,1.028-.716C291.027,113.407,289.2,111.246,286.254,110.107Z" transform="translate(-284.726 -110.017)" fill="#534aa2"/>
      </g>
    </g>
  </g>
</svg>
