<svg xmlns="http://www.w3.org/2000/svg" width="24.912" height="17.264" viewBox="0 0 24.912 17.264">
  <g id="_x31_1-DSLR_Camera" transform="translate(-2.418 5.17)">
    <path id="Path_1251" data-name="Path 1251" d="M23.1,9.466H16.5L15.17,7.472a.744.744,0,0,0-.62-.314H10.362a.744.744,0,0,0-.62.314L8.41,9.466H6.246V9.027a.686.686,0,0,0-.722-.644H2.852a.686.686,0,0,0-.722.644v.439H1.816A1.726,1.726,0,0,0,0,11.085V22.8a1.726,1.726,0,0,0,1.816,1.619H23.1A1.726,1.726,0,0,0,24.912,22.8V11.085A1.726,1.726,0,0,0,23.1,9.466ZM12.456,21.551a4.912,4.912,0,0,1-5.168-4.607,4.912,4.912,0,0,1,5.168-4.607,4.912,4.912,0,0,1,5.168,4.607A4.912,4.912,0,0,1,12.456,21.551ZM21.963,12.8H19.7a.648.648,0,1,1,0-1.287h2.263a.648.648,0,1,1,0,1.287Z" transform="translate(2.418 -12.328)" />
  </g>
</svg>
