<svg xmlns="http://www.w3.org/2000/svg" width="23.616" height="19.949" viewBox="0 0 23.616 19.949">
  <g id="share" transform="translate(138.578 103.588)">
    <path id="Path_1279" data-name="Path 1279" d="M20.914,102.4H2.71A2.547,2.547,0,0,1,0,100.058V87.686A2.547,2.547,0,0,1,2.71,85.34H6.154a.646.646,0,1,1,0,1.28H2.71a1.158,1.158,0,0,0-1.23,1.066v12.371a1.159,1.159,0,0,0,1.23,1.066h18.2a1.159,1.159,0,0,0,1.23-1.066V92.805a.746.746,0,0,1,1.476,0v7.252a2.548,2.548,0,0,1-2.706,2.346Zm0,0" transform="translate(-138.582 -186.042)" fill="#534aa2"/>
    <path id="Path_1280" data-name="Path 1280" d="M128.819,13.807a.9.9,0,0,1-.18-.017.7.7,0,0,1-.636-.619v-1.3c0-4.643,4.763-8.42,10.617-8.42h.272V.648a.668.668,0,0,1,.512-.6A.973.973,0,0,1,140.3.2l7.078,5.829a.555.555,0,0,1,0,.9L140.3,12.756a.976.976,0,0,1-.893.152.668.668,0,0,1-.512-.6V9.5H137.6a9.4,9.4,0,0,0-8.035,3.939.884.884,0,0,1-.745.368Zm9.8-9.057c-4.573,0-8.36,2.725-8.915,6.235A11.941,11.941,0,0,1,137.6,8.2h2.11a.747.747,0,0,1,.817.648V10.7l5.127-4.223-5.127-4.223V4.1a.747.747,0,0,1-.817.648Zm0,0" transform="translate(-262.565 -103.588)" fill="#534aa2"/>
  </g>
</svg>
