<svg id="siegel" xmlns="http://www.w3.org/2000/svg" width="25" height="23.119" viewBox="0 0 25 23.119">
  <path id="Path_1272" data-name="Path 1272" d="M23.534,8.883a5.243,5.243,0,0,1-.927-1.2,5.106,5.106,0,0,1-.283-1.521,4.044,4.044,0,0,0-.986-2.781,4.847,4.847,0,0,0-3.007-.912,6.357,6.357,0,0,1-1.646-.262,5.659,5.659,0,0,1-1.292-.857A4.78,4.78,0,0,0,12.5,0,4.78,4.78,0,0,0,9.606,1.355a5.659,5.659,0,0,1-1.292.857,6.356,6.356,0,0,1-1.645.262,4.848,4.848,0,0,0-3.008.912,4.043,4.043,0,0,0-.986,2.781,5.106,5.106,0,0,1-.283,1.522,5.243,5.243,0,0,1-.927,1.2A4.186,4.186,0,0,0,0,11.56a4.186,4.186,0,0,0,1.466,2.676,5.243,5.243,0,0,1,.927,1.2,5.106,5.106,0,0,1,.283,1.521,4.044,4.044,0,0,0,.986,2.781,4.847,4.847,0,0,0,3.007.912,6.357,6.357,0,0,1,1.646.262,5.659,5.659,0,0,1,1.292.857A4.78,4.78,0,0,0,12.5,23.119a4.78,4.78,0,0,0,2.894-1.355,5.659,5.659,0,0,1,1.292-.857,6.356,6.356,0,0,1,1.645-.262,4.848,4.848,0,0,0,3.008-.912,4.043,4.043,0,0,0,.986-2.781,5.106,5.106,0,0,1,.283-1.522,5.243,5.243,0,0,1,.927-1.2A4.186,4.186,0,0,0,25,11.56,4.186,4.186,0,0,0,23.534,8.883ZM22.346,13.3a6.263,6.263,0,0,0-1.182,1.58,6.105,6.105,0,0,0-.4,1.952,3.046,3.046,0,0,1-.534,1.882,3.708,3.708,0,0,1-2.035.494,7.584,7.584,0,0,0-2.111.366,6.8,6.8,0,0,0-1.709,1.093,3.569,3.569,0,0,1-1.879,1.01,3.569,3.569,0,0,1-1.879-1.01,6.8,6.8,0,0,0-1.709-1.093A7.584,7.584,0,0,0,6.8,19.206a3.7,3.7,0,0,1-2.035-.494,3.051,3.051,0,0,1-.534-1.882,6.105,6.105,0,0,0-.4-1.952A6.263,6.263,0,0,0,2.654,13.3c-.562-.608-1.092-1.182-1.092-1.738s.53-1.13,1.092-1.738a6.263,6.263,0,0,0,1.182-1.58,6.105,6.105,0,0,0,.4-1.952,3.046,3.046,0,0,1,.534-1.882A3.708,3.708,0,0,1,6.8,3.914a7.584,7.584,0,0,0,2.111-.366,6.8,6.8,0,0,0,1.709-1.093A3.569,3.569,0,0,1,12.5,1.445a3.569,3.569,0,0,1,1.879,1.01,6.8,6.8,0,0,0,1.709,1.093,7.584,7.584,0,0,0,2.111.366,3.7,3.7,0,0,1,2.035.494,3.051,3.051,0,0,1,.534,1.882,6.105,6.105,0,0,0,.4,1.952,6.263,6.263,0,0,0,1.182,1.58c.562.608,1.092,1.182,1.092,1.738S22.907,12.689,22.346,13.3Z" fill="#a09fb0"/>
  <path id="Path_1273" data-name="Path 1273" d="M5,0A5.006,5.006,0,0,0,0,5H1A4,4,0,0,1,5,1Z" transform="translate(5.455 4.942)" fill="#a09fb0"/>
  <path id="Path_1274" data-name="Path 1274" d="M0,4V5A5.006,5.006,0,0,0,5,0H4A4,4,0,0,1,0,4Z" transform="translate(14.545 13.178)" fill="#a09fb0"/>
</svg>
